<svg width="160" height="72" viewBox="0 0 160 72" fill="none" xmlns="http://www.w3.org/2000/svg">
<path d="M16.8729 49.8L4.49682 37.2293C1.16773 33.8479 1.16773 28.3756 4.49682 24.9942C7.82592 21.6128 13.2135 21.6128 16.5426 24.9942L16.8729 25.3298L17.4574 24.7361C20.7865 21.3547 26.1741 21.3547 29.5032 24.7361C32.8323 28.1175 32.8323 33.5898 29.5032 36.9712L16.8729 49.8Z" fill="#4C9063" stroke="black" stroke-width="2.4" stroke-miterlimit="10"/>
<path d="M48.9066 35L44.6586 22.76H46.3626L49.7466 31.856H50.2746L53.3706 22.76H55.0746L58.1466 31.856H58.6746L62.0586 22.76H63.9306L59.6826 35H57.5466L54.6426 26.024H53.9706L51.0426 35H48.9066ZM77.6717 28.928C77.6717 29.12 77.6557 29.392 77.6237 29.744H66.3917C66.6157 30.688 67.1677 31.456 68.0477 32.048C68.9277 32.64 69.9837 32.936 71.2157 32.936C73.0877 32.936 74.4877 32.448 75.4157 31.472H77.4077C76.8957 32.64 76.0797 33.568 74.9597 34.256C73.8557 34.944 72.5997 35.288 71.1917 35.288C69.3197 35.288 67.7597 34.68 66.5117 33.464C65.2637 32.232 64.6397 30.704 64.6397 28.88C64.6397 27.056 65.2637 25.536 66.5117 24.32C67.7597 23.088 69.3117 22.472 71.1677 22.472C73.0237 22.472 74.5677 23.088 75.7997 24.32C77.0477 25.536 77.6717 27.072 77.6717 28.928ZM74.2877 25.712C73.4077 25.12 72.3677 24.824 71.1677 24.824C69.9677 24.824 68.9277 25.12 68.0477 25.712C67.1677 26.288 66.6157 27.048 66.3917 27.992H75.9437C75.7197 27.048 75.1677 26.288 74.2877 25.712ZM90.9214 17.72H92.5534V35H90.9214V31.856C90.4574 32.912 89.7694 33.752 88.8574 34.376C87.9454 34.984 86.9054 35.288 85.7374 35.288C83.9934 35.288 82.5374 34.68 81.3694 33.464C80.2014 32.232 79.6174 30.704 79.6174 28.88C79.6174 27.056 80.2014 25.536 81.3694 24.32C82.5374 23.088 83.9934 22.472 85.7374 22.472C86.9054 22.472 87.9454 22.784 88.8574 23.408C89.7694 24.016 90.4574 24.848 90.9214 25.904V17.72ZM82.6894 31.808C83.6014 32.576 84.7454 32.96 86.1214 32.96C87.4974 32.96 88.6414 32.576 89.5534 31.808C90.4654 31.024 90.9214 30.048 90.9214 28.88C90.9214 27.712 90.4654 26.744 89.5534 25.976C88.6414 25.192 87.4974 24.8 86.1214 24.8C84.7454 24.8 83.6014 25.192 82.6894 25.976C81.7774 26.744 81.3214 27.712 81.3214 28.88C81.3214 30.048 81.7774 31.024 82.6894 31.808ZM106.625 17.72H108.257V35H106.625V31.856C106.161 32.912 105.473 33.752 104.561 34.376C103.649 34.984 102.609 35.288 101.441 35.288C99.6965 35.288 98.2405 34.68 97.0725 33.464C95.9045 32.232 95.3205 30.704 95.3205 28.88C95.3205 27.056 95.9045 25.536 97.0725 24.32C98.2405 23.088 99.6965 22.472 101.441 22.472C102.609 22.472 103.649 22.784 104.561 23.408C105.473 24.016 106.161 24.848 106.625 25.904V17.72ZM98.3925 31.808C99.3045 32.576 100.449 32.96 101.825 32.96C103.201 32.96 104.345 32.576 105.257 31.808C106.169 31.024 106.625 30.048 106.625 28.88C106.625 27.712 106.169 26.744 105.257 25.976C104.345 25.192 103.201 24.8 101.825 24.8C100.449 24.8 99.3045 25.192 98.3925 25.976C97.4805 26.744 97.0245 27.712 97.0245 28.88C97.0245 30.048 97.4805 31.024 98.3925 31.808ZM118.248 22.472C119.736 22.472 120.936 22.928 121.848 23.84C122.76 24.736 123.216 25.936 123.216 27.44V35H121.584V28.088C121.584 27.096 121.216 26.304 120.48 25.712C119.76 25.104 118.792 24.8 117.576 24.8C116.328 24.8 115.32 25.104 114.552 25.712C113.784 26.32 113.4 27.128 113.4 28.136V35H111.768V22.76H113.4V25.568C113.832 24.576 114.464 23.816 115.296 23.288C116.144 22.744 117.128 22.472 118.248 22.472ZM129.077 34.712C128.741 35.016 128.317 35.168 127.805 35.168C127.293 35.168 126.861 35.016 126.509 34.712C126.173 34.408 126.005 34.032 126.005 33.584C126.005 33.12 126.173 32.736 126.509 32.432C126.861 32.128 127.293 31.976 127.805 31.976C128.317 31.976 128.741 32.136 129.077 32.456C129.429 32.76 129.605 33.136 129.605 33.584C129.605 34.032 129.429 34.408 129.077 34.712ZM137.66 35.288C135.804 35.288 134.252 34.68 133.004 33.464C131.756 32.232 131.132 30.704 131.132 28.88C131.132 27.056 131.756 25.536 133.004 24.32C134.252 23.088 135.804 22.472 137.66 22.472C139.212 22.472 140.556 22.912 141.692 23.792C142.844 24.672 143.588 25.824 143.924 27.248H142.124C141.772 26.512 141.196 25.92 140.396 25.472C139.596 25.024 138.684 24.8 137.66 24.8C136.284 24.8 135.14 25.192 134.228 25.976C133.316 26.744 132.86 27.712 132.86 28.88C132.86 30.048 133.316 31.024 134.228 31.808C135.14 32.576 136.284 32.96 137.66 32.96C138.684 32.96 139.596 32.736 140.396 32.288C141.196 31.84 141.772 31.248 142.124 30.512H143.924C143.588 31.936 142.844 33.088 141.692 33.968C140.556 34.848 139.212 35.288 137.66 35.288ZM156.94 33.464C155.708 34.68 154.164 35.288 152.308 35.288C150.452 35.288 148.9 34.68 147.652 33.464C146.404 32.232 145.78 30.704 145.78 28.88C145.78 27.056 146.404 25.536 147.652 24.32C148.9 23.088 150.452 22.472 152.308 22.472C154.164 22.472 155.708 23.088 156.94 24.32C158.188 25.536 158.812 27.056 158.812 28.88C158.812 30.704 158.188 32.232 156.94 33.464ZM148.876 31.808C149.788 32.576 150.932 32.96 152.308 32.96C153.684 32.96 154.828 32.576 155.74 31.808C156.652 31.024 157.108 30.048 157.108 28.88C157.108 27.712 156.652 26.744 155.74 25.976C154.828 25.192 153.684 24.8 152.308 24.8C150.932 24.8 149.788 25.192 148.876 25.976C147.964 26.744 147.508 27.712 147.508 28.88C147.508 30.048 147.964 31.024 148.876 31.808Z" fill="black"/>
<path d="M46.7368 40.896V54H45.3928V40.896H46.7368ZM53.2048 50.136C53.2048 50.9648 53.0312 51.6816 52.684 52.2864C52.3368 52.8912 51.872 53.356 51.2896 53.6808C50.7184 54.0056 50.08 54.168 49.3744 54.168C48.736 54.168 48.1704 54.0056 47.6776 53.6808C47.196 53.356 46.8152 52.8912 46.5352 52.2864C46.2664 51.6816 46.132 50.9648 46.132 50.136C46.132 49.296 46.2664 48.5792 46.5352 47.9856C46.8152 47.3808 47.196 46.916 47.6776 46.5912C48.1704 46.2664 48.736 46.104 49.3744 46.104C50.08 46.104 50.7184 46.2664 51.2896 46.5912C51.872 46.916 52.3368 47.3808 52.684 47.9856C53.0312 48.5792 53.2048 49.296 53.2048 50.136ZM51.844 50.136C51.844 49.5424 51.7208 49.0384 51.4744 48.624C51.2392 48.2096 50.92 47.896 50.5168 47.6832C50.1248 47.4704 49.688 47.364 49.2064 47.364C48.8144 47.364 48.428 47.4704 48.0472 47.6832C47.6664 47.896 47.3528 48.2096 47.1064 48.624C46.86 49.0384 46.7368 49.5424 46.7368 50.136C46.7368 50.7296 46.86 51.2336 47.1064 51.648C47.3528 52.0624 47.6664 52.376 48.0472 52.5888C48.428 52.8016 48.8144 52.908 49.2064 52.908C49.688 52.908 50.1248 52.8016 50.5168 52.5888C50.92 52.376 51.2392 52.0624 51.4744 51.648C51.7208 51.2336 51.844 50.7296 51.844 50.136ZM60.944 46.272L55.904 57.696H54.392L56.5088 52.908L53.552 46.272H55.148L57.6008 52.32L57.0464 52.2528L59.432 46.272H60.944ZM68.5919 50.976C68.5919 51.592 68.7319 52.068 69.0119 52.404C69.2919 52.74 69.7007 52.908 70.2383 52.908C70.6303 52.908 70.9719 52.8296 71.2631 52.6728C71.5655 52.5048 71.7951 52.2752 71.9519 51.984C72.1199 51.6928 72.2039 51.3568 72.2039 50.976V46.272H73.5479V54H72.2039V52.7904C71.9463 53.2496 71.6271 53.5968 71.2463 53.832C70.8655 54.056 70.4175 54.168 69.9023 54.168C69.0959 54.168 68.4519 53.8936 67.9703 53.3448C67.4887 52.796 67.2479 52.0624 67.2479 51.144V46.272H68.5919V50.976ZM81.0305 49.296C81.0305 48.6576 80.8905 48.176 80.6105 47.8512C80.3305 47.5264 79.9217 47.364 79.3841 47.364C78.9921 47.364 78.6449 47.448 78.3425 47.616C78.0513 47.7728 77.8217 47.9968 77.6537 48.288C77.4969 48.5792 77.4185 48.9152 77.4185 49.296V54H76.0745V46.272H77.4185V47.4816C77.6761 47.0112 77.9953 46.664 78.3761 46.44C78.7681 46.216 79.2161 46.104 79.7201 46.104C80.5377 46.104 81.1817 46.3784 81.6521 46.9272C82.1337 47.4648 82.3745 48.1984 82.3745 49.128V54H81.0305V49.296ZM86.161 40.896V54H84.817V40.896H86.161ZM92.629 50.136C92.629 50.9648 92.4554 51.6816 92.1082 52.2864C91.761 52.8912 91.2962 53.356 90.7138 53.6808C90.1426 54.0056 89.5042 54.168 88.7986 54.168C88.1602 54.168 87.5946 54.0056 87.1018 53.6808C86.6202 53.356 86.2394 52.8912 85.9594 52.2864C85.6906 51.6816 85.5562 50.9648 85.5562 50.136C85.5562 49.296 85.6906 48.5792 85.9594 47.9856C86.2394 47.3808 86.6202 46.916 87.1018 46.5912C87.5946 46.2664 88.1602 46.104 88.7986 46.104C89.5042 46.104 90.1426 46.2664 90.7138 46.5912C91.2962 46.916 91.761 47.3808 92.1082 47.9856C92.4554 48.5792 92.629 49.296 92.629 50.136ZM91.2682 50.136C91.2682 49.5424 91.145 49.0384 90.8986 48.624C90.6634 48.2096 90.3442 47.896 89.941 47.6832C89.549 47.4704 89.1122 47.364 88.6306 47.364C88.2386 47.364 87.8522 47.4704 87.4714 47.6832C87.0906 47.896 86.777 48.2096 86.5306 48.624C86.2842 49.0384 86.161 49.5424 86.161 50.136C86.161 50.7296 86.2842 51.2336 86.5306 51.648C86.777 52.0624 87.0906 52.376 87.4714 52.5888C87.8522 52.8016 88.2386 52.908 88.6306 52.908C89.1122 52.908 89.549 52.8016 89.941 52.5888C90.3442 52.376 90.6634 52.0624 90.8986 51.648C91.145 51.2336 91.2682 50.7296 91.2682 50.136ZM93.8103 50.136C93.8103 49.352 93.9839 48.6576 94.3311 48.0528C94.6895 47.448 95.1711 46.972 95.7759 46.6248C96.3807 46.2776 97.0583 46.104 97.8087 46.104C98.5703 46.104 99.2479 46.2776 99.8415 46.6248C100.446 46.972 100.922 47.448 101.269 48.0528C101.628 48.6576 101.807 49.352 101.807 50.136C101.807 50.9088 101.628 51.6032 101.269 52.2192C100.922 52.824 100.446 53.3 99.8415 53.6472C99.2479 53.9944 98.5703 54.168 97.8087 54.168C97.0583 54.168 96.3807 53.9944 95.7759 53.6472C95.1711 53.3 94.6895 52.824 94.3311 52.2192C93.9839 51.6032 93.8103 50.9088 93.8103 50.136ZM95.1711 50.136C95.1711 50.6736 95.2831 51.1496 95.5071 51.564C95.7423 51.9784 96.0559 52.3088 96.4479 52.5552C96.8511 52.7904 97.3047 52.908 97.8087 52.908C98.3127 52.908 98.7607 52.7904 99.1527 52.5552C99.5559 52.3088 99.8695 51.9784 100.093 51.564C100.329 51.1496 100.446 50.6736 100.446 50.136C100.446 49.5984 100.329 49.1224 100.093 48.708C99.8695 48.2824 99.5559 47.952 99.1527 47.7168C98.7607 47.4816 98.3127 47.364 97.8087 47.364C97.3047 47.364 96.8511 47.4816 96.4479 47.7168C96.0559 47.952 95.7423 48.2824 95.5071 48.708C95.2831 49.1224 95.1711 49.5984 95.1711 50.136ZM107.523 46.272H109.035L106.398 50.0184L109.203 54H107.691L105.675 51.0768L103.659 54H102.147L104.953 50.0184L102.315 46.272H103.827L105.675 48.96L107.523 46.272ZM116.258 40.896H117.602V54H116.258V40.896ZM109.79 50.136C109.79 49.296 109.964 48.5792 110.311 47.9856C110.658 47.3808 111.123 46.916 111.705 46.5912C112.288 46.2664 112.926 46.104 113.62 46.104C114.27 46.104 114.836 46.2664 115.317 46.5912C115.799 46.916 116.174 47.3808 116.443 47.9856C116.723 48.5792 116.863 49.296 116.863 50.136C116.863 50.9648 116.723 51.6816 116.443 52.2864C116.174 52.8912 115.799 53.356 115.317 53.6808C114.836 54.0056 114.27 54.168 113.62 54.168C112.926 54.168 112.288 54.0056 111.705 53.6808C111.123 53.356 110.658 52.8912 110.311 52.2864C109.964 51.6816 109.79 50.9648 109.79 50.136ZM111.151 50.136C111.151 50.7296 111.268 51.2336 111.504 51.648C111.75 52.0624 112.075 52.376 112.478 52.5888C112.881 52.8016 113.318 52.908 113.788 52.908C114.18 52.908 114.567 52.8016 114.948 52.5888C115.328 52.376 115.642 52.0624 115.888 51.648C116.135 51.2336 116.258 50.7296 116.258 50.136C116.258 49.5424 116.135 49.0384 115.888 48.624C115.642 48.2096 115.328 47.896 114.948 47.6832C114.567 47.4704 114.18 47.364 113.788 47.364C113.318 47.364 112.881 47.4704 112.478 47.6832C112.075 47.896 111.75 48.2096 111.504 48.624C111.268 49.0384 111.151 49.5424 111.151 50.136Z" fill="black"/>
</svg>
